# xmcd CD database file
#
# Track frame offsets:
#	150
#	40588
#	97017
#	140396
#	185731
#	240612
#
# Disc length: 3917 seconds
#
# Revision: 0
# Processed by: cddbd v1.4PL0 Copyright (c) Steve Scherf et al.
# Submitted via: CDex 1.50beta10
#
DISCID=4c0f4b06
DTITLE=Carolyn Breuer - Fate Smiles
DYEAR=2000
DGENRE=Jazz
TTITLE0=Fate Smiles on those who stay cool
TTITLE1=Now I know
TTITLE2=Platina
TTITLE3=Jessie
TTITLE4=Dipertido
TTITLE5=Time will tell
EXTD=YEAR: 2000
EXTT0=
EXTT1=
EXTT2=
EXTT3=
EXTT4=
EXTT5=
PLAYORDER=
